<?xml version="1.0" encoding="UTF-8"?>
<svg width="622px" height="421px" viewBox="0 0 622 421" version="1.1" xmlns="http://www.w3.org/2000/svg" xmlns:xlink="http://www.w3.org/1999/xlink">
    <title>mian_introo</title>
    <defs>
        <path d="M66.3464239,24.8499504 C65.6162939,24.9109628 62.8617121,25.6593815 62.2269968,25.2689022 C61.5549452,24.8540179 61.2230679,23.1538057 61.1608409,22.3362396 C60.965863,19.724909 57.2363916,19.2856197 54.7639056,20.8800771 C55.0833375,18.6266859 53.2331215,14.965942 49.7567066,17.7237024 C49.1053974,15.5028511 47.8691544,11.988537 46.9606402,9.8815756 C45.1850966,5.76934003 43.6584609,2.71872017 39.2610865,1.08765542 C34.7309611,-0.592219246 28.9687412,-0.498666903 25.0650343,2.59262789 C22.3726796,4.72806179 22.5925483,7.65665685 22.4266096,10.7276142 C19.9292328,8.85656733 16.9340401,10.0646128 15.1667933,12.4807037 C13.3705074,14.9374696 13.4410313,17.0647685 14.0135197,19.9242162 C12.7731282,18.5412685 10.4043539,19.733044 9.20129859,20.6604324 C7.0980261,22.2833622 7.13121383,26.5582975 7.56265434,27.3717961 C0,25.6512465 0,31 0,31 L73.3365899,30.9267851 C73.3365899,30.9267851 74.0584231,29.8692369 73.9961961,27.8151529 C73.8924844,24.4432011 68.8562461,24.6303057 66.3422755,24.8458829 L66.3464239,24.8499504 Z" id="path-1"></path>
        <path d="M138.953392,52.8958693 C137.422755,53.0292447 131.655683,54.6214132 130.325786,53.7878172 C128.920611,52.9042053 128.222206,49.2822302 128.096744,47.5441824 C127.691083,41.9840964 119.87898,41.0504688 114.70158,44.4432049 C115.370711,39.6416914 111.498116,31.8517358 104.217135,37.7244203 C102.857963,32.9979304 100.260899,25.5122375 98.3580578,21.0316584 C94.6360173,12.2747314 91.4409173,5.78101781 82.2361856,2.31325804 C72.7512553,-1.25870124 60.6776249,-1.06280616 52.501682,5.51843504 C46.8600722,10.0615338 47.3200997,16.3010006 46.972988,22.836394 C41.7412209,18.8518046 35.472301,21.4276166 31.7711708,26.5667365 C28.0073095,31.7975521 28.157864,36.3281469 29.3539355,42.4133984 C26.7568712,39.4708042 21.7969385,42.0091043 19.2709694,43.984727 C14.8630698,47.4358149 14.938347,56.5386843 15.8416737,58.2725642 C0,54.6089093 0,66 0,66 L153.611541,65.8416167 C153.611541,65.8416167 155.125449,63.5867393 154.991623,59.2145278 C154.774155,52.0330974 144.22698,52.4373915 138.957574,52.8917013 L138.953392,52.8958693 Z" id="path-3"></path>
        <path d="M0.0168462838,0.00827194956 C0.100026207,0.0232719496 0.503448832,0.19327195 1.16472922,0.49327195 C0.324611998,0.16327195 -0.0912876159,-0.0117280504 0.0168462838,0.00827194956 Z" id="path-5"></path>
        <circle id="path-7" cx="86" cy="86" r="86"></circle>
        <path d="M23.6102881,0.890365252 L57.5273111,0.68982114 L60.940739,8.79096766 C61.8975015,11.0638009 64.1285547,12.5344578 66.5935761,12.5219237 L141.943848,12.0748775 C144.145655,12.0623435 146.171987,10.8632568 147.237377,8.93719774 L152.117284,0.129968827 L173.901388,0 C186.961823,-0.0789312893 197.707645,10.3368285 197.782849,23.1507617 L199.751102,355.573517 C199.825892,368.124236 189.623211,378.502394 176.922084,378.987042 C176.667226,378.995398 176.408189,379.003754 176.144975,379.003754 L25.8496974,379.893669 C25.5906612,379.893669 25.3274471,379.893669 25.0725889,379.885313 C12.3631058,379.551073 2.04344008,369.294077 1.96823604,356.743358 L0,24.3206023 C-0.0748070987,11.5108472 10.5456748,0.965569294 23.6061101,0.890365252 L23.6102881,0.890365252 Z" id="path-9"></path>
        <path d="M4.60978691,0 L2.0621639,22.9888013 C2.0621639,22.9888013 1.09124569,21.3774563 0,19.0731493 L4.60978691,0 Z" id="path-11"></path>
        <path d="M4.6969206,8.47417227 C3.012336,7.98575939 1.37754208,7.40968265 0.0248953388,6.69584844 L0,6.09055042 L0,0 L4.6969206,8.46999781 L4.6969206,8.47417227 Z" id="path-13"></path>
    </defs>
    <g id="Index" stroke="none" stroke-width="1" fill="none" fill-rule="evenodd">
        <g id="Main" transform="translate(-40.000000, -238.000000)">
            <g id="mian_introo" transform="translate(40.000000, 238.000000)">
                <path d="M508.54957,174.81066 C499.400032,175.168787 490.167088,176.318123 481.1927,177.317545 C458.560728,179.836924 435.720243,180.536519 412.975674,179.408005 C405.485896,179.037385 397.620796,178.341954 391.394606,174.161035 C385.23931,170.025924 381.615358,163.071607 379.029801,156.125619 C371.173041,135.00865 370.83108,111.19324 378.074812,89.8597287 C381.686253,79.2283695 387.111754,69.196664 389.647269,58.2613137 C394.918471,35.5077897 380.293388,15.3319435 359.788245,6.35379609 C334.170371,-4.86472396 304.35722,0.41139516 277.921976,9.54362028 C160.875437,49.9702694 42.7946761,164.554084 47.1150599,295.799109 C47.6780443,312.847595 50.8516081,330.949639 62.4824484,343.442423 C74.0632457,355.876907 92.1246187,360.428445 109.122577,359.916241 C126.120535,359.404037 142.626403,354.494373 159.219846,350.775687 C184.787678,345.041499 210.976877,342.08071 237.182758,341.951618 C252.637722,341.876661 271.43723,345.066485 276.891923,359.503979 C280.766089,369.764719 275.882721,381.76612 279.756888,392.02686 C298.018433,440.357277 398.17127,377.322853 423.138584,364.534407 C459.219628,346.049251 495.459141,327.472481 528.337429,303.765341 C544.797424,291.897196 560.7695,278.275897 570.048316,260.24881 C581.966904,237.087188 578.905937,205.81775 558.179771,188.515244 C543.663115,176.397244 526.273153,174.119393 508.54957,174.81066 Z" id="Path" fill="#CEE9FF" fill-rule="nonzero"></path>
                <g id="Group" transform="translate(452.000000, 238.000000)" fill="#4260A9" fill-rule="nonzero">
                    <path d="M40.5256392,35.5545413 C40.5090421,30.0321517 41.0774931,24.264415 44.1479584,19.2701455 C48.4549083,12.3047822 64.0810869,11.8099295 64.9731816,20.729753 C65.6163196,27.1087783 54.5253011,37.9082104 49.6291538,41.9585172 C47.8906066,43.3765404 42.9280708,47.327045 40.8285365,45.9048633 C40.7787451,45.8216948 40.7289538,45.7343679 40.6791625,45.6511994 C40.2144434,44.7405041 39.7455751,43.8298088 39.2601096,42.9274304 C40.6999089,40.7484152 40.5380871,37.9872204 40.5256392,35.5628582 L40.5256392,35.5545413 Z" id="Path"></path>
                    <path d="M61.852925,52.3961661 C61.0479652,55.6646889 50.6083833,60.0310361 47.1686323,60.4676708 C46.9030786,59.7565799 46.6333755,59.0496475 46.3595232,58.3427151 C47.3014092,54.0720118 63.4960388,45.5555556 61.852925,52.3961661 L61.852925,52.3961661 Z" id="Path"></path>
                    <path d="M26.6131122,60.4593539 C33.9573331,59.3157868 40.8285365,61.8191592 46.5794349,63.6322329 C46.8657351,64.5013439 47.1437366,65.3746133 47.417589,66.2478828 C39.8659041,69.3999696 29.5466513,73.5084943 21.9659215,71.4334398 C13.6466203,69.1546224 19.8165958,61.494802 26.6131122,60.4593539 Z" id="Path"></path>
                    <path d="M12.4848227,38.0911811 C7.3770622,38.2783103 -4.63509582,31.5167098 1.90001606,27.9654141 C10.0906896,23.5450074 22.9700466,30.1735382 30.0404153,29.5123485 C30.5424778,30.269182 31.0320926,31.0343324 31.517558,31.7994827 C26.0612583,36.3321669 19.1485621,37.7834576 12.4848227,38.0911811 Z" id="Path"></path>
                    <path d="M28.9118118,53.1987423 C26.1234974,52.0801258 25.2687463,49.0236827 27.9699259,47.4517978 C31.96568,45.1355545 37.8949974,46.8945687 40.940567,49.2149703 C41.1272844,49.6224961 41.3098526,50.0341802 41.4924209,50.4458644 C37.6128465,50.5872509 33.2187617,54.9244891 28.9118118,53.1987423 Z" id="Path"></path>
                    <path d="M26.6919484,22.2891627 C26.4886338,22.3848065 26.2853192,22.4762919 26.0861539,22.5719357 C25.6795247,21.3909427 24.9907447,20.7838126 25.1940593,19.5737106 C25.7915552,16.0224149 25.1069245,11.8099295 26.5633208,8.51645621 C28.256226,4.65327856 34.1772448,1.0437649 36.5962735,6.67843197 C39.3887372,13.6022111 30.754091,17.8645976 26.6960977,22.2891627 L26.6919484,22.2891627 Z" id="Path"></path>
                    <path d="M19.1444129,15.2364724 C17.995063,20.397079 6.2775037,19.8939094 2.5514526,15.0784523 C-0.319847345,11.4190375 2.26515247,11.9929002 6.19866743,11.7641868 C11.1985467,11.4897307 13.3976637,12.0178508 17.9286746,13.6521122 C18.2481689,14.0138952 18.563514,14.3756783 18.8747098,14.7416198 C18.9618447,14.9079568 19.0531288,15.0701354 19.1402636,15.2364724 L19.1444129,15.2364724 Z" id="Path"></path>
                    <path d="M41.4924209,50.4458644 C41.3098526,50.0341802 41.1272844,49.6266545 40.940567,49.2149703 C38.2103424,43.2102034 35.0610409,37.3925655 31.517558,31.7994827 C31.0320926,31.0343324 30.5383286,30.269182 30.0404153,29.5123485 C26.6504556,24.3766925 22.9244046,19.4447994 18.8788591,14.7457782 C18.563514,14.3798367 18.2481689,14.0180537 17.9328239,13.6562706 C16.094694,11.5645824 14.1901757,9.51863685 12.2234182,7.52259242 C12.3188516,7.50595872 12.4184342,7.48932502 12.5221662,7.46853289 C12.534614,7.43942391 12.5429125,7.4061565 12.5553604,7.37704752 C23.3559294,17.9352908 32.3308164,29.9406664 39.2642589,42.9191135 C39.7455751,43.821492 40.2185927,44.7321872 40.6833118,45.6428825 C42.7828461,49.7888331 44.6790659,54.0262691 46.3636725,58.3427151 C46.6375248,59.0496475 46.9072278,59.7565799 47.1727816,60.4676708 C50.4922035,69.404128 53.3842498,80.6568284 53.3842498,80.6568284 L51.2556705,82 C51.2556705,82 49.7287365,73.7205741 47.417589,66.2478828 C47.1478859,65.3746133 46.8698843,64.5013439 46.5794349,63.6322329 C45.1022922,59.1536082 43.4010884,54.7539936 41.4924209,50.4458644 L41.4924209,50.4458644 Z" id="Path"></path>
                    <path d="M12.9785867,7.40199807 C8.76707013,10.4002231 5.07421325,4.39129773 5.07421325,4.39129773 C5.07421325,4.39129773 6.41857913,3.73010802 7.21524038,3.22693849 C8.30235106,2.54495664 8.33554528,2.2330747 9.89567357,1.94198489 C10.8126639,1.77148943 13.5138435,0 13.5138435,0 C13.5138435,0 16.8913552,5.06496273 12.9827359,7.39783965 L12.9785867,7.40199807 Z" id="Path"></path>
                </g>
                <g id="Group" opacity="0.61" transform="translate(403.000000, 134.000000)">
                    <g id="Clipped">
                        <mask id="mask-2" fill="white">
                            <use xlink:href="#path-1"></use>
                        </mask>
                        <g id="Path"></g>
                        <g id="Group" mask="url(#mask-2)" fill-rule="nonzero">
                            <g transform="translate(0.004148, -0.584084)" id="Rectangle">
                                <rect fill="#CBEAF5" x="0" y="0" width="8.22226051" height="31.5922192"></rect>
                                <rect fill="#CAEAF4" x="8.22640897" y="0" width="8.22226051" height="31.5922192"></rect>
                                <rect fill="#C9E9F3" x="16.4486695" y="0" width="8.22226051" height="31.5922192"></rect>
                                <rect fill="#C8E9F2" x="24.67093" y="0" width="8.22226051" height="31.5922192"></rect>
                                <rect fill="#C8E9F1" x="32.8931905" y="0" width="8.22226051" height="31.5922192"></rect>
                                <rect fill="#C7E8EF" x="41.115451" y="0" width="8.22226051" height="31.5922192"></rect>
                                <rect fill="#C6E8EE" x="49.3377115" y="0" width="8.22226051" height="31.5922192"></rect>
                                <rect fill="#C5E7ED" x="57.559972" y="0" width="8.22226051" height="31.5922192"></rect>
                                <rect fill="#C4E7EC" x="65.7822325" y="0" width="8.22226051" height="31.5922192"></rect>
                                <rect fill="#C4E7EC" x="74.004493" y="0" width="1" height="31.5922192"></rect>
                            </g>
                        </g>
                    </g>
                </g>
                <g id="Group" opacity="0.61" transform="translate(37.000000, 35.000000)">
                    <g id="Clipped">
                        <mask id="mask-4" fill="white">
                            <use xlink:href="#path-3"></use>
                        </mask>
                        <g id="Path"></g>
                        <g id="Group" mask="url(#mask-4)" fill-rule="nonzero">
                            <g transform="translate(-0.004182, -1.258701)" id="Rectangle">
                                <rect fill="#CBEAF5" x="0" y="0" width="17.2217561" height="67.2628692"></rect>
                                <rect fill="#CAEAF4" x="17.2217561" y="0" width="17.2217561" height="67.2628692"></rect>
                                <rect fill="#C9E9F3" x="34.4435122" y="0" width="17.2217561" height="67.2628692"></rect>
                                <rect fill="#C8E9F2" x="51.6652684" y="0" width="17.2217561" height="67.2628692"></rect>
                                <rect fill="#C8E9F1" x="68.8870245" y="0" width="17.2217561" height="67.2628692"></rect>
                                <rect fill="#C7E8EF" x="86.1087806" y="0" width="17.2217561" height="67.2628692"></rect>
                                <rect fill="#C6E8EE" x="103.330537" y="0" width="17.2217561" height="67.2628692"></rect>
                                <rect fill="#C5E7ED" x="120.556475" y="0" width="17.2217561" height="67.2628692"></rect>
                                <rect fill="#C4E7EC" x="137.778231" y="0" width="17.2217561" height="67.2628692"></rect>
                                <rect fill="#C4E7EC" x="154.999987" y="0" width="1" height="67.2628692"></rect>
                            </g>
                        </g>
                    </g>
                </g>
                <g id="Group" transform="translate(506.000000, 149.000000)" fill="#4260A9" fill-rule="nonzero">
                    <path d="M45.5339,67.4374368 C44.6276304,57.6762047 42.644646,47.5802538 36.3963742,39.2792317 C27.6329964,27.7063349 0.0541308684,29.5096316 0,45.4213187 C-0.0497991343,56.8059362 21.3015806,73.9853701 30.6012373,80.3031843 C33.9020541,82.5165113 43.3056408,88.6418623 46.7561169,85.767466 C46.8267893,85.6084747 46.9016189,85.4494833 46.9722913,85.290492 C47.6332861,83.6001629 48.3109097,81.9140177 49.0051621,80.2362406 C46.0992792,76.6296473 45.9163624,71.7260193 45.5297428,67.4374368 L45.5339,67.4374368 Z" id="Path"></path>
                    <path d="M10.8628511,100.850724 C12.8292068,106.486549 31.9398557,112.415253 38.0717258,112.599349 C38.4167735,111.29813 38.7701355,110.001095 39.1318119,108.708244 C36.7497362,101.323515 6.80958104,89.0477086 10.8586939,100.850724 L10.8628511,100.850724 Z" id="Path"></path>
                    <path d="M74.2476812,109.063883 C61.1317148,108.302398 49.4666113,113.896383 39.6514619,118.092918 C39.2939427,119.678648 38.9530523,121.268561 38.6246335,122.858475 C52.4473238,127.138689 71.3043835,132.632259 84.2873194,127.661687 C98.5423586,122.209957 86.3825483,109.73332 74.2476812,109.063883 L74.2476812,109.063883 Z" id="Path"></path>
                    <path d="M95.3080569,67.1152701 C104.329181,66.5755363 124.312842,52.5675615 112.21539,47.4128945 C97.054081,41.0030327 75.51147,54.9273279 62.9608829,54.9649837 C62.2084297,56.3917219 61.4726052,57.8226441 60.7492524,59.2577502 C71.1214667,66.3370493 83.5265518,67.7177637 95.3080569,67.1152701 L95.3080569,67.1152701 Z" id="Path"></path>
                    <path d="M68.968037,96.6290857 C73.6864592,94.1772717 74.6717156,88.6293103 69.6498178,86.3155678 C62.2292157,82.9056217 52.0898046,87.0268449 47.1302649,91.650146 C46.8725185,92.4032629 46.6189293,93.1605639 46.3653401,93.9178648 C53.220563,93.5036505 61.6846224,100.41559 68.968037,96.6290857 Z" id="Path"></path>
                    <path d="M67.6252614,41.6264461 C67.9994094,41.7561496 68.3694002,41.8900371 68.7435482,42.0239245 C69.2631982,39.8691733 70.3648563,38.6725542 69.8077915,36.5721948 C68.1490686,30.4008199 68.6437754,22.8403628 65.5258753,17.2672975 C61.8924825,10.7319162 50.8592734,5.3680501 47.5584565,15.7401438 C43.8169764,28.4552679 59.7390528,34.5053072 67.6294186,41.6306301 L67.6252614,41.6264461 Z" id="Path"></path>
                    <path d="M79.7143993,27.8778782 C82.6119678,36.7981298 103.144379,33.9028137 108.881315,24.756627 C113.312891,17.8028474 108.860529,19.2588734 101.901376,19.5266483 C93.0590116,19.8948388 89.2801168,21.2086095 81.5809822,24.8737785 C81.0821181,25.5683197 80.5874113,26.2628608 80.1010189,26.961586 C79.9721457,27.2670167 79.8432725,27.5724475 79.7185565,27.8778782 L79.7143993,27.8778782 Z" id="Path"></path>
                    <path d="M46.3653401,93.9178648 C46.6147721,93.1605639 46.8725185,92.4032629 47.1302649,91.650146 C50.9174742,80.5751432 55.4696083,69.7511794 60.7492524,59.2619342 C61.4726052,57.8226441 62.2125869,56.3917219 62.9608829,54.9691677 C68.0492958,45.3167191 73.7696032,35.9613333 80.0927045,26.961586 C80.5832541,26.2628608 81.0779609,25.5683197 81.5726678,24.8737785 C84.4536074,20.8613389 87.4551059,16.920027 90.5771632,13.0582107 C90.406718,13.0456588 90.2321156,13.0331068 90.0408844,13.0163709 C90.0159412,12.9661631 89.990998,12.9117713 89.9660548,12.8615635 C72.7552463,33.3672638 58.9990712,56.119763 49.0010049,80.2362406 C48.3067525,81.9140177 47.6291289,83.6001629 46.9681341,85.290492 C43.97495,92.9722846 41.3559139,100.787965 39.1276547,108.70406 C38.7618211,109.996911 38.4084591,111.29813 38.0675686,112.595165 C33.7440805,128.954538 29.7074392,149 29.7074392,149 L35.1824718,144.690498 C35.1824718,144.690498 35.8226806,136.452235 38.6163191,122.854291 C38.9447379,121.260193 39.2856283,119.674464 39.6431475,118.088734 C41.4847871,109.925783 43.725518,101.859064 46.3611829,93.9178648 L46.3653401,93.9178648 Z" id="Path"></path>
                    <path d="M89.2302304,12.9745311 C97.1538538,17.5476244 102.624729,6.30526227 102.624729,6.30526227 C102.624729,6.30526227 100.142881,5.36386611 98.6629174,4.61911715 C96.6342037,3.59822532 96.5219593,3.05849152 93.7324781,2.81163653 C92.0862268,2.66519712 87.0393859,0 87.0393859,0 C87.0393859,0 81.9551302,9.52692913 89.2302304,12.978715 L89.2302304,12.9745311 Z" id="Path"></path>
                </g>
                <path d="M416.720962,161.177302 C416.812587,159.332887 417,157.509336 417,155.644056 C417,94.5363224 367.560344,45 306.571858,45 C245.583372,45 196.143716,94.5363224 196.143716,155.644056 C191.416734,256.52356 304.855984,318.069447 306.426092,318.920715 L306.426092,319 C306.426092,319 306.496893,318.962444 306.496893,318.958271 C306.496893,318.958271 306.567693,319 306.567693,319 L306.567693,318.920715 C308.112813,318.090311 417.07913,258.714325 416.716798,161.181475 L416.720962,161.177302 Z" id="Path" fill="#40A6FD" fill-rule="nonzero"></path>
                <path d="M306.793099,256 L306.793099,255.166146 C309.26755,255.166146 311.76708,255.070252 314.220632,254.890974 L314.283329,255.720659 C311.808878,255.904107 309.288449,256 306.793099,256 Z M299.307049,255.503857 C296.807519,255.266208 294.30799,254.957682 291.879517,254.582447 L292.009091,253.756931 C294.420845,254.132166 296.903655,254.440692 299.390646,254.674171 L299.311229,255.503857 L299.307049,255.503857 Z M321.73176,254.890974 L321.606366,254.065458 C324.051558,253.698562 326.50929,253.235772 328.908504,252.693767 L329.092416,253.506775 C326.668123,254.057119 324.189492,254.524078 321.727581,254.890974 L321.73176,254.890974 Z M284.514682,253.206587 C282.06531,252.668751 279.624297,252.04753 277.258522,251.35543 L277.492591,250.55493 C279.841648,251.238691 282.265941,251.855743 284.694414,252.38941 L284.514682,253.202418 L284.514682,253.206587 Z M336.336036,251.572233 L336.089427,250.775902 C338.451023,250.050448 340.808439,249.224932 343.103158,248.324369 L343.408284,249.099854 C341.092667,250.008755 338.714351,250.838441 336.331856,251.572233 L336.336036,251.572233 Z M270.144475,249.012299 C267.795419,248.145091 265.463082,247.186158 263.218521,246.164686 L263.565445,245.405879 C265.793287,246.419012 268.104725,247.369606 270.432883,248.232645 L270.144475,249.016469 L270.144475,249.012299 Z M350.271542,246.106316 L349.907898,245.355847 C352.13156,244.284344 354.338502,243.116948 356.474388,241.887013 L356.89237,242.608297 C354.739765,243.85074 352.511923,245.026475 350.271542,246.106316 Z M256.522456,242.804253 C254.336412,241.599333 252.175448,240.29852 250.110619,238.935168 L250.570399,238.238899 C252.618508,239.589744 254.758574,240.878049 256.927898,242.07463 L256.522456,242.804253 L256.522456,242.804253 Z M363.22897,238.626642 L362.756651,237.938712 C364.792221,236.550344 366.802713,235.070252 368.733788,233.531791 L369.256264,234.182197 C367.30847,235.733167 365.28126,237.229935 363.22897,238.626642 L363.22897,238.626642 Z M244.020627,234.574109 C242.056114,233.039817 240.133399,231.4138 238.306819,229.733583 L238.875274,229.1207 C240.685134,230.78424 242.59113,232.397749 244.538925,233.915364 L244.024807,234.574109 L244.020627,234.574109 Z M374.932454,229.304148 L374.363999,228.695435 C376.173859,227.019387 377.941921,225.255785 379.622207,223.45049 L380.23664,224.017511 C378.543815,225.835314 376.759034,227.615593 374.936634,229.304148 L374.932454,229.304148 Z M233.002633,224.451115 C231.318168,222.629143 229.67968,220.715447 228.141508,218.755889 L228.797739,218.243069 C230.323371,220.18178 231.94514,222.082969 233.617066,223.884094 L233.002633,224.451115 Z M385.127025,218.35147 L384.474973,217.830311 C386.017325,215.904107 387.50534,213.898687 388.893039,211.864082 L389.582708,212.33521 C388.17829,214.386492 386.677736,216.408589 385.127025,218.35147 L385.127025,218.35147 Z M223.748521,212.693767 C222.373362,210.629977 221.06508,208.478632 219.848753,206.302272 L220.580221,205.897853 C221.784008,208.057536 223.088111,210.188034 224.446551,212.230978 L223.748521,212.693767 Z M393.578612,206.006254 L392.855504,205.589327 C394.092729,203.454659 395.263078,201.249114 396.33729,199.031061 L397.089657,199.393788 C396.011265,201.628518 394.828377,203.854909 393.578612,206.006254 Z M216.450563,199.631436 C215.409789,197.384198 214.444252,195.057744 213.57067,192.727121 L214.352296,192.435272 C215.217518,194.749218 216.178875,197.054826 217.20711,199.281217 L216.446383,199.631436 L216.450563,199.631436 Z M400.094945,192.535335 L399.317499,192.230978 C400.220339,189.933709 401.047942,187.57807 401.77523,185.222431 L402.573575,185.468418 C401.842107,187.840734 401.006144,190.221388 400.094945,192.535335 Z M211.209074,185.631019 C210.515225,183.254534 209.896612,180.81551 209.369955,178.380655 L210.189199,178.205545 C210.711676,180.623723 211.326109,183.041901 212.011599,185.39754 L211.209074,185.631019 Z M404.50883,178.247238 L403.693766,178.06379 C404.241322,175.662289 404.701101,173.210757 405.064745,170.775902 L405.892349,170.896811 C405.524525,173.352512 405.060566,175.824891 404.50883,178.243069 L404.50883,178.247238 Z M208.057493,171.021889 C207.710569,168.566187 207.44306,166.064624 207.267508,163.583907 L208.099292,163.525537 C208.274844,165.985408 208.538172,168.466125 208.885097,170.905149 L208.057493,171.021889 Z M406.724132,163.471336 L405.892349,163.408797 C406.072081,160.957265 406.164037,158.46404 406.164037,156 L406.164037,155.754013 L407,155.754013 L407,156 C407,158.484886 406.908044,160.998958 406.724132,163.471336 Z M207.835963,156.11257 L207,156.11257 L207,156.016677 C207,153.565145 207.087776,151.084428 207.254969,148.641234 L208.090932,148.699604 C207.923739,151.121951 207.840143,153.585991 207.840143,156.016677 L207.840143,156.11257 L207.835963,156.11257 Z M405.87563,148.345216 C405.687538,145.889514 405.40331,143.408797 405.035487,140.978111 L405.86309,140.853033 C406.235094,143.304565 406.523501,145.80196 406.711593,148.282677 L405.879809,148.345216 L405.87563,148.345216 Z M208.860018,141.315822 L208.032414,141.199083 C208.379339,138.735043 208.81404,136.258495 209.332337,133.836148 L210.151581,134.011257 C209.637464,136.416927 209.202763,138.872629 208.860018,141.315822 Z M403.639428,133.694392 C403.087693,131.297061 402.435641,128.887221 401.704174,126.535752 L402.502518,126.289764 C403.242346,128.66208 403.898577,131.088597 404.454492,133.506775 L403.639428,133.694392 L403.639428,133.694392 Z M211.957261,126.815093 L211.154737,126.581614 C211.848586,124.19262 212.638571,121.803627 213.499613,119.481343 L214.285419,119.773192 C213.428557,122.078799 212.646931,124.446946 211.961441,126.819262 L211.957261,126.815093 Z M399.229723,119.543882 C398.322703,117.254951 397.315367,114.974359 396.241154,112.760475 L396.993521,112.397749 C398.080273,114.628309 399.091789,116.929748 400.007168,119.235355 L399.229723,119.543882 Z M217.123514,112.918908 L216.362787,112.572858 C217.403561,110.313112 218.536291,108.065875 219.740078,105.897853 L220.471546,106.302272 C219.280298,108.449448 218.151748,110.675839 217.123514,112.918908 L217.123514,112.918908 Z M392.751008,106.223056 C391.513783,104.096727 390.176242,101.991245 388.780183,99.9608088 L389.469853,99.4896811 C390.878451,101.536794 392.228531,103.663123 393.474116,105.806129 L392.751008,106.227225 L392.751008,106.223056 Z M224.321156,99.9649781 L223.623127,99.5063581 C224.998286,97.4258912 226.469581,95.3871169 227.995214,93.4358974 L228.655625,93.9487179 C227.142532,95.8790911 225.687956,97.9053575 224.325336,99.9649781 L224.321156,99.9649781 Z M384.349579,94.0070878 C382.807227,92.0892224 381.172919,90.200542 379.488453,88.3994163 L380.098706,87.8323952 C381.795712,89.650198 383.446739,91.5513863 385.00163,93.4859287 L384.349579,94.0070878 L384.349579,94.0070878 Z M233.454053,88.2951845 L232.83962,87.7323327 C234.524086,85.9020221 236.304688,84.1175735 238.127087,82.4331874 L238.695542,83.0460705 C236.889862,84.7179487 235.12598,86.481551 233.454053,88.2993538 L233.454053,88.2951845 Z M374.217706,83.1669794 C372.403666,81.4951011 370.506029,79.8690848 368.574955,78.3389619 L369.093252,77.6885553 C371.041046,79.2311862 372.955401,80.8697102 374.781981,82.5582656 L374.213526,83.1711486 L374.217706,83.1669794 Z M244.342473,78.2305608 L243.824176,77.575985 C245.77615,76.045862 247.82008,74.5699395 249.897448,73.1940796 L250.361408,73.8903481 C248.300759,75.2537002 246.273548,76.7171149 244.342473,78.23473 L244.342473,78.2305608 Z M362.585279,73.9403794 C360.541349,72.5520117 358.422182,71.2303523 356.282117,70.0004169 L356.700098,69.2791328 C358.856883,70.5174067 360.992769,71.8557432 363.053418,73.2524494 L362.585279,73.9403794 L362.585279,73.9403794 Z M256.710548,70.0379404 L256.305106,69.3083177 C258.47025,68.1075672 260.718991,66.9693558 262.988631,65.931207 L263.339735,66.6900146 C261.086815,67.7239942 258.858973,68.8496977 256.710548,70.0379404 Z M349.707267,66.5399208 C347.475245,65.472587 345.180526,64.4761309 342.881628,63.5839066 L343.186754,62.8084219 C345.502372,63.7131541 347.81799,64.7137794 350.066731,65.7894517 L349.703087,66.5399208 L349.707267,66.5399208 Z M270.202993,63.8465708 L269.910406,63.0669168 C272.221844,62.2080467 274.612698,61.4117157 277.016092,60.7071086 L277.250162,61.5076089 C274.867667,62.2080467 272.493532,62.9960392 270.198813,63.85074 L270.202993,63.8465708 Z M335.855357,61.1448822 C333.493762,60.4235981 331.077828,59.7856994 328.670254,59.243694 L328.854166,58.4306858 C331.282639,58.9768605 333.719472,59.6189285 336.097787,60.3443819 L335.855357,61.1407129 L335.855357,61.1448822 Z M284.451984,59.6522827 L284.268072,58.8392745 C286.671466,58.3056077 289.145917,57.8386492 291.624548,57.4467375 L291.754122,58.2722535 C289.292211,58.6558266 286.834479,59.1227851 284.447805,59.6522827 L284.451984,59.6522827 Z M321.359757,57.8886804 C318.922924,57.530123 316.435934,57.2591203 313.969843,57.0840108 L314.02836,56.2543256 C316.511171,56.4336043 319.01906,56.704607 321.480971,57.0673338 L321.359757,57.8928497 L321.359757,57.8886804 Z M299.135677,57.3383365 L299.05626,56.5086512 C301.505632,56.2710027 304.017702,56.1000625 306.529771,56 L306.563209,56.8338545 C304.067859,56.9380863 301.56833,57.1048572 299.139857,57.3425057 L299.135677,57.3383365 Z" id="Shape" fill="#FFFFFF" fill-rule="nonzero"></path>
                <g id="Group" transform="translate(356.000000, 232.000000)" fill-rule="nonzero">
                    <path d="M54.0770571,162.230458 C54.0770571,162.230458 55.175193,166.975111 55.175193,168.29145 C55.175193,169.607789 55.0100597,171.611457 54.626125,172.36127 C54.2421903,173.111083 41.2090514,173.048599 38.9714964,172.92363 C36.7380697,172.798661 36.1146918,172.611208 35.9908419,171.107415 C35.866992,169.603623 38.2861935,168.12899 39.528821,167.612452 C40.7714484,167.095914 43.5621997,165.029761 44.4952024,164.279948 C45.428205,163.530135 45.5809532,161.838889 45.5809532,161.838889 C45.5809532,161.838889 49.7505669,159.86438 54.0770571,162.230458 Z" id="Path" fill="#233862"></path>
                    <path d="M78.3640245,158.689673 C78.3640245,158.689673 80.6593762,166.975111 80.6593762,168.287284 C80.6593762,169.603623 80.4942429,171.607291 80.1103082,172.357104 C79.7263735,173.106918 66.6932346,173.044433 64.4556796,172.919464 C62.2222529,172.794496 61.598875,172.607042 61.4750251,171.10325 C61.3511752,169.599457 63.7703767,168.124824 65.0130042,167.608286 C66.2556316,167.091748 68.2372302,165.025596 69.1702328,164.275782 C70.1032355,163.525969 68.972073,160.647519 68.972073,160.647519 C68.972073,160.647519 74.0375343,156.319429 78.3640245,158.685507 L78.3640245,158.689673 Z" id="Path" fill="#233862"></path>
                    <path d="M79.445647,157.644099 C79.445647,157.644099 76.0521595,162.197133 68.2289735,160.505887 C68.2289735,160.505887 62.6103159,142.277091 59.3530633,131.146527 C58.1475908,127.018388 57.2641281,123.856675 57.1113799,122.973561 C56.9916583,122.294564 56.9916583,120.311724 57.0535833,117.595733 L57.0535833,117.587402 C57.3054114,107.202487 58.5851938,86.1035709 58.5851938,86.1035709 L75.2842901,83.8874558 C75.2842901,83.8874558 76.5227892,94.3223588 75.2842901,100.329197 C74.0375343,106.344367 72.7412386,123.519259 72.7412386,123.519259 L79.445647,157.644099 L79.445647,157.644099 Z" id="Path" fill="#2C478B"></path>
                    <path d="M63.1511272,101.145661 L59.3530633,131.150693 C58.1475908,127.022554 57.2641281,123.860841 57.1113799,122.977727 C56.9916583,122.298729 56.9916583,120.31589 57.0535833,117.599899 L57.0535833,117.591568 L63.1511272,101.149826 L63.1511272,101.145661 Z" id="Path" fill="#233862"></path>
                    <path d="M63.2336938,85.1413104 C63.2336938,85.1413104 64.5465028,89.681847 64.1749531,96.1968922 C63.8034034,102.711937 54.8655682,122.690299 54.8655682,122.690299 L54.8366699,161.901373 C54.8366699,161.901373 49.589562,164.65902 44.6231806,161.526467 L39.5329493,118.745447 L40.7508068,84.7580724 L63.2378221,85.1413104 L63.2336938,85.1413104 Z" id="Path" fill="#2C478B"></path>
                    <path d="M11.4520463,32.7626795 L7.7902173,37.0282845 L7.72416402,37.1032659 C5.99852194,36.0576928 3.01786743,32.4877479 2.13027641,31.5629781 C1.25507037,30.6382082 0,27.7889173 0,26.31845 C-0.00819871127,24.8479826 0.867007321,21.1863939 1.88670492,20.836481 C2.90640251,20.4948993 5.04487763,23.1484056 5.48248064,23.8107407 C5.92008366,24.4814072 8.33102858,26.4975721 8.33102858,26.4975721 C7.95122219,24.5605541 8.66129501,22.952621 9.25577458,22.8026583 C9.85438247,22.64853 10.3332688,25.8685619 10.6883052,27.0849259 C10.8905934,27.7722548 11.1093949,29.5051569 11.2538865,30.8756491 C11.3818647,31.9295535 11.4561746,32.7626795 11.4561746,32.7626795 L11.4520463,32.7626795 Z" id="Path" fill="#F6B68E"></path>
                    <path d="M11.4520463,32.7626795 L7.7902173,37.0282845 C6.91501127,36.4159369 6.24209343,35.9160614 6.24209343,35.9160614 C6.24209343,35.9160614 6.83244466,32.3211227 11.2538865,30.8756491 C11.3818647,31.9295535 11.4561746,32.7626795 11.4561746,32.7626795 L11.4520463,32.7626795 Z" id="Path" fill="#C4764B"></path>
                    <path d="M41.3329013,10.8264722 C41.3329013,10.8264722 40.6517268,22.0361824 43.0709284,24.7938294 C45.49013,27.5514764 49.1560873,26.047684 49.1560873,26.047684 L49.1560873,30.3049578 L57.7842977,30.3049578 L57.7842977,24.1023348 C57.7842977,24.1023348 61.7557515,10.0100087 59.9557995,8.00634075 C58.1558475,6.00267275 53.8087156,4.31142699 50.0849617,4.43639589 C46.3612077,4.56136479 42.2617757,6.62751724 41.3329013,10.8264722 Z" id="Path" fill="#F6B68E"></path>
                    <path d="M71.0651364,31.7462658 C71.0651364,31.7462658 62.436926,26.735013 53.9325655,27.488992 C45.428205,28.2388054 39.5329493,33.2500582 39.5329493,33.2500582 L37.4481425,84.1082341 C37.4481425,84.1082341 57.6563195,88.9945181 76.7746173,83.4833897 L71.0651364,31.7462658 L71.0651364,31.7462658 Z" id="Path" fill="#F99746"></path>
                    <path d="M80.9978992,56.7525423 C81.0556959,59.660152 79.9121484,63.1926062 78.6488793,66.1585347 C77.1750654,69.6493326 75.5485032,72.3611577 75.5485032,72.3611577 L73.5256213,54.032386 L71.0651364,31.7421002 C71.0651364,31.7421002 80.869921,50.4457786 80.9937709,56.7525423 L80.9978992,56.7525423 Z" id="Path" fill="#F99746"></path>
                    <path d="M39.528821,33.2500582 L39.004523,45.9219045 L38.7279249,52.7868626 C36.9238445,53.728295 34.6780328,54.4697771 32.4446061,55.0404684 C27.519508,56.3068199 22.6439499,56.7567079 22.6439499,56.7567079 C15.8239481,50.3333066 5.72605213,36.5658996 5.72605213,36.5658996 C8.69844998,32.6835325 11.4933296,31.7462658 11.4933296,31.7462658 L27.7630795,43.3892015 L39.528821,33.2500582 L39.528821,33.2500582 Z" id="Path" fill="#F99746"></path>
                    <path d="M38.9425981,7.23569921 C38.9425981,7.23569921 38.6371016,9.83505229 41.328773,10.8223066 C44.0204444,11.8095609 45.3497668,10.8223066 45.3497668,10.8223066 C45.3497668,10.8223066 45.952503,12.0844925 46.9226606,12.6010306 C47.8886899,13.1175687 48.6152761,15.7419155 48.6152761,15.7419155 C48.6152761,15.7419155 50.0354217,13.5466286 51.0344776,14.6130298 C52.0335336,15.6794311 51.3688724,18.4579063 49.8537752,19.0036038 L51.5051073,24.3731008 L57.7760411,24.3731008 C57.7760411,24.3731008 61.2190686,23.7024344 61.5823617,21.6904351 C61.9456547,19.6784358 61.037422,18.4870657 61.037422,18.4870657 C61.037422,18.4870657 63.3946987,17.3873394 63.9396383,15.1920524 C64.4845779,12.9967654 62.3089478,10.0683276 62.3089478,10.0683276 C62.3089478,10.0683276 64.2121081,6.4692233 62.3997711,4.423899 C60.587434,2.38274033 56.3228688,2.92843785 56.3228688,2.92843785 C56.3228688,2.92843785 54.3123719,0 50.8280611,0 C47.3437503,0 46.2538711,1.46213611 46.2538711,1.46213611 C46.2538711,1.46213611 39.4214844,1.00391682 38.9384697,7.22736795 L38.9425981,7.23569921 Z" id="Path" fill="#222850"></path>
                    <path d="M78.6488793,66.1585347 C77.1750654,69.6493326 75.5485032,72.3611577 75.5485032,72.3611577 L73.5256213,54.032386 L78.644751,66.1585347 L78.6488793,66.1585347 Z" id="Path" fill="#ED7D2C"></path>
                    <path d="M39.0086513,45.9177388 L38.7320532,52.782697 C36.9279729,53.7241294 34.6821611,54.4656115 32.4487344,55.0363028 L39.0086513,45.9177388 Z" id="Path" fill="#ED7D2C"></path>
                    <path d="M49.151959,26.0435184 C49.151959,26.0435184 50.7331095,24.8104919 51.2574075,23.5649686 C51.2574075,23.5649686 52.5330615,26.7433442 49.151959,28.3762712 L49.151959,26.0435184 L49.151959,26.0435184 Z" id="Path" fill="#C4764B"></path>
                </g>
                <g id="Group" transform="translate(0.000000, 154.000000)">
                    <path d="M43.4812682,103.819229 C44.0718456,102.725 44.3671344,101.260481 44.3130674,99.3383006 C44.1467076,93.8089102 39.0436193,87.6595957 35.9077362,83.461586 C30.2099115,75.8269499 15.9487137,57.5204655 31.9774848,51.1964073 C37.9705983,48.8332066 44.5334942,53.4847178 50.5598796,53.4680756 C60.7951691,53.4389516 60.2836126,43.5451289 60.3792695,35.4611519 C60.4915624,26.0541152 56.9855286,12.6570971 64.4134958,4.88516238 C73.2929525,-4.409539 92.2371799,1.26131059 100.56349,7.82668158 C110.204043,15.4280332 114.625056,24.1985034 116.650487,36.051952 C117.827483,42.9335259 117.486446,51.8912216 124.182429,56.1349975 C130.408447,60.0792128 139.961661,56.7965273 146.890548,59.6423535 C155.062976,63.0040897 155.466398,71.8702529 155.308356,79.8543765 C155.067135,91.8700871 142.660849,110.110002 163.252039,110.476132 C174.735027,110.68 195.975021,96.5798463 196,117.599019 C196.02077,132.822525 183.223539,148.245738 174.801571,159.870355 C166.250675,171.665556 157.920206,186.123518 144.195519,192.534948 C104.759917,210.957929 62.5793785,176.932831 32.8259201,154.370089 C23.5887896,147.363698 13.3742951,139.059211 6.4745205,129.648014 C0.0447124675,120.877544 -5.50338839,103.894119 10.0346212,101.476831 C17.2546385,100.353478 38.8481465,112.427437 43.4895862,103.819229 L43.4812682,103.819229 Z" id="Path" fill="#89BAE3" fill-rule="nonzero"></path>
                    <g transform="translate(58.561578, 36.842459)">
                        <path d="M55.8846415,117.431937 C52.7487584,98.9465481 48.5149003,78.6055476 44.1645903,60.0660716 L1.69708073,37.3826732 L43.1955442,55.9762365 C36.5785814,28.2960001 29.8576436,5.38377063 26.4389488,0 C33.4302213,9.38207324 45.9487997,46.0324871 55.1027502,85.5994567 L70.1541572,52.1942833 L56.5916708,92.1897911 C59.6901229,106.277463 62.3061315,120.560681 64.0445919,133.96186 L87.0147276,116.616466 L64.5395124,137.935199 C65.9785251,150.125654 66.3403578,157.751969 65.9161402,167.408639 L60.5302401,168.157541 C62.0150018,158.738022 60.1184995,143.24408 56.5459218,121.384473 C51.5842394,119.408205 8.80064614,102.366532 1.16472922,99.5165454 C9.1666378,102.146022 55.7515536,116.757925 55.8888005,117.419455 L55.8846415,117.431937 Z" id="Path" fill="#4260A9" fill-rule="nonzero"></path>
                        <g id="Clipped" transform="translate(0.000000, 99.118569)">
                            <mask id="mask-6" fill="white">
                                <use xlink:href="#path-5"></use>
                            </mask>
                            <g id="Path"></g>
                            <rect id="Rectangle" fill="#009BB3" fill-rule="nonzero" mask="url(#mask-6)" x="-0.0912876159" y="-0.0117280504" width="1.25601683" height="1"></rect>
                        </g>
                    </g>
                </g>
                <g id="Clipped" transform="translate(221.000000, 70.000000)">
                    <mask id="mask-8" fill="white">
                        <use xlink:href="#path-7"></use>
                    </mask>
                    <g id="Oval"></g>
                    <g id="Group" mask="url(#mask-8)">
                        <g transform="translate(-13.950747, -167.404648)">
                            <g id="Group" stroke-width="1" fill="none" fill-rule="evenodd">
                                <path d="M197.782849,23.1549397 C197.761959,19.7247998 196.976495,16.4701359 195.58522,13.5371783 C191.787416,5.51959184 183.469013,-0.0496852729 173.905566,0.00423496534 L170.542274,0.025518769 L152.117284,0.13414683 L147.237377,8.94137575 C146.171987,10.8674348 144.141477,12.0665215 141.93967,12.0832335 L116.59173,12.2336416 L66.5935761,12.5261017 C64.1285547,12.5428138 61.8975015,11.0721569 60.940739,8.79932367 L58.0077813,1.84712779 L58.0077813,1.84712779 L57.5273111,0.693999142 L23.6102881,0.894543254 C10.5540308,0.969747296 -0.0706290964,11.5150252 0.00417815706,24.3247803 L0.322103123,78.2669684 L0.840175412,165.570505 L1.18694961,224.37171 L1.46269776,270.6974 L1.58803783,292.09295 L1.97241404,356.751714 C2.04761809,369.298255 12.3714618,379.559429 25.0767669,379.893669 C25.3316251,379.893669 25.5948392,379.897847 25.8538754,379.897847 L176.144975,379.01211 C176.408189,379.007932 176.671404,378.999576 176.922084,378.99122 C189.623211,378.51075 199.825892,368.128414 199.751102,355.577695 L199.37049,292.09295 L197.778671,23.1591177 L197.782849,23.1549397 Z" id="Path" fill="#B8B3FF" fill-rule="nonzero"></path>
                                <g id="Clipped">
                                    <mask id="mask-10" fill="white">
                                        <use xlink:href="#path-9"></use>
                                    </mask>
                                    <g id="Path"></g>
                                    <g id="Group" mask="url(#mask-10)" fill-rule="nonzero">
                                        <g transform="translate(-30.026906, -26.066106)">
                                            <polygon id="Path" fill="#FFFFFF" points="65.1475904 371.432763 60.1506996 362.262048 102.306743 339.291391 93.5830742 303.544403 103.731442 301.071026 114.356102 344.622522"></polygon>
                                            <path d="M213.144967,402.575593 L212.944423,369.005344 L238.442771,368.854936 L238.392635,360.427905 L212.885931,360.578313 L212.534979,304.016518 L238.058395,303.86611 L238.008259,295.439079 L212.484843,295.589487 L212.204916,251.302662 L237.745045,251.152254 L237.694909,242.725223 L212.15478,242.875632 L211.452876,130.487369 L122.808201,131.013797 L122.611834,92.1249514 L236.629518,91.448115 L236.579382,83.0210843 L177.723863,83.3678585 L177.519141,48.6904392 L236.537602,48.339487 L236.487466,39.9124563 L132.730956,40.5266226 L132.49281,0 L124.241255,0.050136028 L124.529538,49.0037894 L169.267586,48.7405752 L169.472309,83.4179946 L61.2787602,84.0572289 L60.8233579,0.426156238 L52.5718033,0.476292266 L53.1734357,111.093082 L0,111.406432 L0.050136028,119.833463 L53.2193937,119.520113 L53.662262,201.220948 L0.534784298,201.534298 L0.584920326,209.961329 L53.70822,209.647979 L54.1845122,296.52536 L1.09881461,296.83871 L1.14895064,305.26574 L54.2304703,304.95239 L54.5396424,361.514186 L1.48319083,361.827536 L1.53332686,370.254567 L54.5856005,369.941216 L55.0034007,446.423727 L63.2549553,446.373591 L63.0669452,411.892538 L238.685095,410.852215 L238.634959,402.425185 L213.136611,402.575593 L213.144967,402.575593 Z M204.638554,360.624271 L160.263991,360.887485 L160.084337,330.200058 C173.182375,328.253109 183.518752,317.574135 185.265157,304.175282 L204.283424,304.062476 L204.634376,360.624271 L204.638554,360.624271 Z M155.910513,322.095118 C144.05752,322.16576 134.352021,312.368344 134.280603,300.260494 C134.209969,288.152643 143.798484,278.242421 155.651477,278.17519 C167.504469,278.104547 177.209969,287.901963 177.281387,300.009813 C177.352021,312.117664 167.763506,322.027886 155.910513,322.095118 Z M204.237466,295.635445 L185.219199,295.748251 C183.309852,282.370288 172.852312,271.812476 159.729207,270.020113 L159.620579,251.607656 L203.95754,251.344442 L204.237466,295.631267 L204.237466,295.635445 Z M203.259813,138.960358 L203.911582,242.917412 L123.380587,243.393704 L122.862515,139.432472 L203.263991,138.95618 L203.259813,138.960358 Z M61.3372522,92.4800816 L114.368636,92.1667314 L115.124854,243.44384 L62.1603187,243.75719 L61.3330742,92.4800816 L61.3372522,92.4800816 Z M62.2104547,252.184221 L151.373202,251.657792 L151.481831,270.070249 C138.383793,272.017198 128.047415,282.696172 126.30101,296.095025 L62.4527789,296.471045 L62.2104547,252.184221 Z M62.4945589,304.902254 L126.346969,304.526234 C128.256316,317.904197 138.713855,328.462009 151.836961,330.254372 L152.016615,360.941799 L62.8037311,361.468228 L62.4945589,304.906432 L62.4945589,304.902254 Z M63.0293432,403.461329 L62.8496891,369.89108 L138.095511,369.444034 L138.296055,403.014283 L63.0335212,403.461329 L63.0293432,403.461329 Z M146.543432,402.968325 L146.342888,369.398076 L204.692868,369.051302 L204.893412,402.621551 L146.543432,402.968325 Z" id="Shape" fill="#361ECA"></path>
                                        </g>
                                    </g>
                                </g>
                                <rect id="Rectangle" fill="#7A6CFF" fill-rule="nonzero" x="38.1246682" y="234.352958" width="36.8792266" height="22.1058103"></rect>
                            </g>
                            <path d="M125.883607,296.029012 C114.030615,296.099654 104.325115,286.302239 104.253697,274.194388 C104.183063,262.086537 113.771578,252.176316 125.624571,252.109084 C137.477564,252.038441 147.183063,261.835857 147.254481,273.943708 C147.325115,286.051558 137.7366,295.96178 125.883607,296.029012 Z" id="Path" fill="#00E9F8" fill-rule="nonzero"></path>
                            <polygon id="Path" fill="#00E9F8" fill-rule="nonzero" points="31.3103464 66.4139758 84.34173 66.1006256 85.0979484 217.377734 32.1334129 217.691084"></polygon>
                            <rect id="Rectangle" fill="#FFFFFF" fill-rule="nonzero" x="121.103973" y="161.960711" width="6.83103381" height="55.0911387"></rect>
                            <rect id="Rectangle" fill="#7A6CFF" fill-rule="nonzero" x="135.367672" y="231.507738" width="12.2916829" height="10.1692577"></rect>
                            <polygon id="Path" fill="#00ADFF" fill-rule="nonzero" points="78.3045166 315.890851 32.6222392 340.779211 32.4676531 278.836148 69.3677697 278.618892"></polygon>
                        </g>
                    </g>
                </g>
                <g id="Group" transform="translate(125.000000, 207.986932)" fill="#273B7F" fill-rule="nonzero">
                    <path d="M-89.6130408,103.829206 L119.244133,104.043982 C120.391299,104.045162 121.320965,104.974835 121.322135,106.122002 C121.323301,107.266136 120.396743,108.194586 119.252609,108.195752 C119.251195,108.195754 119.24978,108.195754 119.248366,108.195752 L-89.6088073,107.980976 C-90.7559741,107.979796 -91.6856395,107.050123 -91.6868093,105.902956 C-91.6879759,104.758822 -90.7614177,103.830372 -89.6172836,103.829206 C-89.6158694,103.829204 -89.6144551,103.829204 -89.6130408,103.829206 Z" id="Rectangle" transform="translate(14.817663, 106.012479) rotate(-83.180000) translate(-14.817663, -106.012479) "></path>
                    <rect id="Rectangle" x="13.6595802" y="113.550653" width="49.3282092" height="4.11637193" rx="2.05818596"></rect>
                    <rect id="Rectangle" x="9.10885262" y="151.242483" width="49.3659572" height="4.11637193" rx="2.05818596"></rect>
                    <rect id="Rectangle" x="4.56231926" y="188.934313" width="49.3659572" height="4.11637193" rx="2.05818596"></rect>
                    <rect id="Rectangle" x="22.8868619" y="37.0734525" width="50.0747802" height="4.11637193" rx="2.05818596"></rect>
                    <rect id="Rectangle" x="18.3361343" y="74.7652824" width="49.2527133" height="4.11637193" rx="2.05818596"></rect>
                    <path d="M-40.2483661,103.830383 L168.608807,104.045159 C169.755974,104.046339 170.685639,104.976012 170.686809,106.123179 C170.687976,107.267313 169.761418,108.195763 168.617284,108.19693 C168.615869,108.196931 168.614455,108.196931 168.613041,108.19693 L-40.2441325,107.982153 C-41.3912994,107.980974 -42.3209648,107.0513 -42.3221345,105.904133 C-42.3233012,104.759999 -41.396743,103.83155 -40.2526089,103.830383 C-40.2511946,103.830381 -40.2497804,103.830381 -40.2483661,103.830383 Z" id="Rectangle" transform="translate(64.182337, 106.013656) rotate(-83.180000) translate(-64.182337, -106.013656) "></path>
                </g>
                <g id="Group" transform="translate(147.000000, 121.000000)">
                    <path d="M25.4241917,153.858975 C25.4241917,153.858975 24.3868859,158.325657 24.3868859,159.565475 C24.3868859,160.805292 24.5445564,162.692152 24.9055388,163.397637 C25.2665212,164.107297 37.5772662,164.04468 39.6850716,163.927795 C41.7970262,163.81091 42.3820666,163.631408 42.4982449,162.216263 C42.6144231,160.801118 40.3282012,159.411019 39.1581203,158.926781 C37.9838901,158.442543 35.3491334,156.49724 34.4694981,155.78758 C33.5898628,155.07792 33.44464,153.487448 33.44464,153.487448 C33.44464,153.487448 29.5070272,151.629809 25.4241917,153.854801 L25.4241917,153.858975 Z" id="Path" fill="#222850" fill-rule="nonzero"></path>
                    <path d="M2.65325506,150.064383 C2.65325506,150.064383 0.325540879,158.325657 0.325540879,159.565475 C0.325540879,160.805292 0.483211359,162.692152 0.844193772,163.397637 C1.20517619,164.107297 13.5159212,164.04468 15.6237266,163.927795 C17.7356812,163.81091 18.3207216,163.631408 18.4368999,162.216263 C18.5530781,160.801118 16.2668562,159.411019 15.0967753,158.926781 C13.9225451,158.442543 12.4246756,156.267644 11.5450403,155.557984 C10.6654049,154.848325 10.4745407,151.245758 10.4745407,151.245758 C10.4745407,151.245758 6.73609063,147.831042 2.65325506,150.060209 L2.65325506,150.064383 Z" id="Path" fill="#222850" fill-rule="nonzero"></path>
                    <path d="M22.5570785,116.902401 C22.4243033,117.670503 21.710637,120.233627 20.7106742,123.652517 C17.694189,134.013549 12.0595439,152.239281 12.0595439,152.239281 C4.67392673,153.833929 1.46242802,149.546749 1.46242802,149.546749 L7.79414253,117.41586 C7.79414253,117.41586 6.56182326,101.243967 5.39589156,95.5833868 C4.22166141,89.9228067 5.39589156,80.1044554 5.39589156,80.1044554 L21.1587903,82.1875155 C21.1587903,82.1875155 21.5363696,88.3782532 21.9056504,95.5499911 C22.3828111,104.591891 22.8516733,115.186694 22.5529292,116.902401 L22.5570785,116.902401 Z" id="Path" fill="#444C72" fill-rule="nonzero"></path>
                    <path d="M22.5570785,116.902401 C22.4243033,117.670503 21.710637,120.233627 20.7106742,123.652517 L16.1423795,93.4711055 L21.9097997,95.5458166 C22.3869603,104.587717 22.8558225,115.182519 22.5570785,116.898226 L22.5570785,116.902401 Z" id="Path" fill="#222850" fill-rule="nonzero"></path>
                    <path d="M16.7772106,81.2774812 C16.7772106,81.2774812 15.5365929,85.5521376 15.8892769,91.6886072 C16.2419609,97.8209023 24.6814807,116.635235 24.6814807,116.635235 L24.7063761,153.554239 C24.7063761,153.554239 29.6646977,156.150759 34.3533199,153.199409 L39.1581203,112.919957 L38.0087855,80.9184769 L16.7730614,81.2774812 L16.7772106,81.2774812 Z" id="Path" fill="#444C72" fill-rule="nonzero"></path>
                    <path d="M66.4434116,20.5598282 C66.115623,21.2694879 65.3189722,23.2607097 64.4642322,24.9638931 L64.4559338,24.9638931 C64.0036684,25.8655784 63.5348062,26.6921233 63.1074362,27.2014085 L58.4686048,24.4587823 C58.4686048,24.4587823 58.4105156,24.2124886 58.3109343,23.8159141 C58.0495332,22.6094925 57.4893881,20.0547174 57.4478959,19.161381 C57.3981052,17.9800063 56.8628554,14.9535162 57.4478959,14.9117715 C58.0329363,14.8616778 59.1407789,16.0764483 59.3855831,17.9299126 C59.3855831,17.9299126 60.9290941,15.3918354 61.1282568,14.6654778 C61.3191211,13.9391202 62.4269636,10.920979 63.4435233,10.920979 C64.460083,10.920979 66.3438303,13.9140733 66.7794987,15.2248566 C67.2151671,16.5398144 66.9537661,19.4577683 66.4434116,20.5556537 L66.4434116,20.5598282 Z" id="Path" fill="#F6B68E" fill-rule="nonzero"></path>
                    <path d="M64.4559338,24.9638931 C64.0036684,25.8655784 63.5348062,26.6921233 63.1074362,27.2014085 L58.4686048,24.4587823 C58.4686048,24.4587823 58.4105156,24.2124886 58.3109343,23.8159141 L58.3192327,23.8075651 C58.3192327,23.8075651 60.5681117,23.4276884 64.4559338,24.9638931 Z" id="Path" fill="#C4764B" fill-rule="nonzero"></path>
                    <path d="M37.4569388,11.3050302 C37.4569388,11.3050302 38.1000684,21.8622625 35.8138464,24.4546078 C33.5276245,27.0511276 30.0713216,25.6359826 30.0713216,25.6359826 L30.0713216,29.6476474 L21.9222473,29.6476474 L21.9222473,23.8075651 C21.9222473,23.8075651 18.1713496,10.5369278 19.8725311,8.65006781 C21.5737126,6.76320778 25.6772943,5.16856058 29.1916863,5.28962019 C32.7102275,5.40650532 36.5773035,7.35180792 37.4569388,11.3050302 L37.4569388,11.3050302 Z" id="Path" fill="#F6B68E" fill-rule="nonzero"></path>
                    <path d="M27.9054271,15.3751375 L26.9096135,15.3751375 C26.9096135,15.3751375 26.0299782,13.5467201 25.0922538,13.7220478 C24.1545294,13.8973755 23.3910723,16.4938953 24.5653025,18.0259254 C25.7395326,19.5579556 26.7934353,19.3826279 26.7934353,19.3826279 L26.266484,23.8075651 L21.9305458,23.8075651 C21.9305458,23.8075651 19.4119673,21.9207051 18.6485103,20.1507302 C17.8850532,18.3807553 15.3664748,12.6617326 16.0096044,8.23679537 C16.6527339,3.81185812 20.8890908,2.98948771 21.9056504,3.75341556 C21.9056504,3.75341556 23.3952215,0.806240373 25.6814435,0.806240373 C27.9676654,0.806240373 30.4281548,1.74967039 32.8927933,1.57434269 C35.3532826,1.39901498 38.3448725,0.455584968 40.1622323,2.45933014 C41.979592,4.4630753 41.3364624,9.41817013 37.4652372,11.3050302 C33.5981613,13.1918902 30.3742149,12.3069027 30.3742149,12.3069027 C30.3742149,12.3069027 28.0299038,13.0165625 27.9137255,15.3751375 L27.9054271,15.3751375 Z" id="Path" fill="#222850" fill-rule="nonzero"></path>
                    <path d="M21.5571157,3.04793028 C21.5571157,3.04793028 18.6111673,1.05670852 19.9306202,0.217640229 C21.2500732,-0.62142806 21.8641582,1.10262768 21.5571157,3.04793028 Z" id="Path" fill="#222850" fill-rule="nonzero"></path>
                    <path d="M9.37914577,31.0001754 C9.37914577,31.0001754 17.52822,26.2830253 25.5569668,26.9885106 C33.5857136,27.6981703 39.1581203,32.4153204 39.1581203,32.4153204 L41.124852,80.3006555 C41.124852,80.3006555 22.0425748,84.9009204 3.98515569,79.7120553 L9.37914577,31.0001754 L9.37914577,31.0001754 Z" id="Path" fill="#FFFFFF" fill-rule="nonzero"></path>
                    <path d="M9.383295,31.0043498 L7.69041196,46.249511 L5.14278895,69.2383123 C5.14278895,69.2383123 4.17187073,67.6269673 3.08062505,65.3226603 C1.6200985,62.2586 -0.0644860958,57.942199 0.00190147444,54.5483556 C0.118079722,48.616435 9.383295,31.0043498 9.383295,31.0043498 Z" id="Path" fill="#FFFFFF" fill-rule="nonzero"></path>
                    <path d="M64.1281451,27.6981703 C64.1281451,27.6981703 61.5473283,48.4995498 55.0994356,54.5483556 C55.0994356,54.5483556 49.622461,54.0348959 44.5853041,52.5905296 C42.9007195,52.1021167 41.2659256,51.5260399 39.9132789,50.8122057 L39.8883835,50.2069077 L39.1581203,32.4153204 L50.2697398,41.9581568 L57.5640741,23.8033906 C57.5640741,23.8033906 61.3191211,24.0329864 64.1281451,27.6939958 L64.1281451,27.6981703 Z" id="Path" fill="#FFFFFF" fill-rule="nonzero"></path>
                    <path d="M30.0713216,25.6359826 C30.0713216,25.6359826 27.8805318,24.4212121 26.8639721,22.8850074 C26.8639721,22.8850074 27.1461193,26.5543658 30.0713216,27.8317533 L30.0713216,25.6359826 L30.0713216,25.6359826 Z" id="Path" fill="#C4764B" fill-rule="nonzero"></path>
                    <g opacity="0.61" transform="translate(3.080625, 46.253685)" id="Clipped">
                        <g>
                            <mask id="mask-12" fill="white">
                                <use xlink:href="#path-11"></use>
                            </mask>
                            <g id="Path"></g>
                            <g id="Group" mask="url(#mask-12)" fill-rule="nonzero">
                                <rect id="Rectangle" fill="#CBEAF5" x="0" y="0" width="1" height="22.9888013"></rect>
                                <rect id="Rectangle" fill="#CAEAF4" x="0.51450367" y="0" width="1" height="22.9888013"></rect>
                                <rect id="Rectangle" fill="#C9E9F3" x="1.02485812" y="0" width="1" height="22.9888013"></rect>
                                <rect id="Rectangle" fill="#C8E9F2" x="1.53936179" y="0" width="1" height="22.9888013"></rect>
                                <rect id="Rectangle" fill="#C8E9F1" x="2.04971623" y="0" width="1" height="22.9888013"></rect>
                                <rect id="Rectangle" fill="#C7E8EF" x="2.56007068" y="0" width="1" height="22.9888013"></rect>
                                <rect id="Rectangle" fill="#C6E8EE" x="3.07457435" y="0" width="1" height="22.9888013"></rect>
                                <rect id="Rectangle" fill="#C5E7ED" x="3.58492879" y="0" width="1" height="22.9888013"></rect>
                                <rect id="Rectangle" fill="#C4E7EC" x="4.09943246" y="0" width="1" height="22.9888013"></rect>
                            </g>
                        </g>
                    </g>
                    <g opacity="0.61" transform="translate(39.892533, 44.116357)" id="Clipped">
                        <g>
                            <mask id="mask-14" fill="white">
                                <use xlink:href="#path-13"></use>
                            </mask>
                            <g id="Path"></g>
                            <g id="Group" mask="url(#mask-14)" fill-rule="nonzero">
                                <g transform="translate(-0.004149, 0.004174)" id="Rectangle">
                                    <rect fill="#CBEAF5" x="0" y="0" width="1" height="8.46999781"></rect>
                                    <rect fill="#CAEAF4" x="0.522802116" y="0" width="1" height="8.46999781"></rect>
                                    <rect fill="#C9E9F3" x="1.04560423" y="0" width="1" height="8.46999781"></rect>
                                    <rect fill="#C8E9F2" x="1.56840635" y="0" width="1" height="8.46999781"></rect>
                                    <rect fill="#C8E9F1" x="2.08705924" y="0" width="1" height="8.46999781"></rect>
                                    <rect fill="#C7E8EF" x="2.60986136" y="0" width="1" height="8.46999781"></rect>
                                    <rect fill="#C6E8EE" x="3.13266347" y="0" width="1" height="8.46999781"></rect>
                                    <rect fill="#C5E7ED" x="3.65546559" y="0" width="1" height="8.46999781"></rect>
                                    <rect fill="#C4E7EC" x="4.1782677" y="0" width="1" height="8.46999781"></rect>
                                </g>
                            </g>
                        </g>
                    </g>
                </g>
            </g>
        </g>
    </g>
</svg>